# xmcd CD database file
#
# Track frame offsets:
#	150
#	26055
#	61003
#	91510
#	118912
#	145525
#	173704
#	202632
#	232959
#	262757
#
# Disc length: 3859 seconds
#
# Revision: 0
# Processed by: cddbd v1.5.1PL0 Copyright (c) Steve Scherf et al.
# Submitted via: CDex 1.51
#
DISCID=6d0f110a
DTITLE=Joel Weiskopf Trio - Change In My Life
DYEAR=2002
DGENRE=Jazz
TTITLE0=There's Been A Change
TTITLE1=Enigma
TTITLE2=Righteousness, Peace And Joy
TTITLE3=First Love
TTITLE4=You Are My Way, My Truth And My Life
TTITLE5=Irish Folk Song
TTITLE6=The Believer
TTITLE7=Song For My Grandmother
TTITLE8=All The Things You Are
TTITLE9=Day Of Rejoicing
EXTD=YEAR: 2002
EXTT0=
EXTT1=
EXTT2=
EXTT3=
EXTT4=
EXTT5=
EXTT6=
EXTT7=
EXTT8=
EXTT9=
PLAYORDER=
